{
  "accessors": [
    {
      "bufferView": 2,
      "componentType": 5126,
      "count": 13993,
      "max": [
        1.9136451482772827,
        5.9881672859191895,
        1.281976580619812
      ],
      "min": [
        -1.4185495376586914,
        0.0011858940124511719,
        -2.8421752452850342
      ],
      "type": "VEC3"
    },
    {
      "bufferView": 2,
      "byteOffset": 167916,
      "componentType": 5126,
      "count": 13993,
      "max": [
        0.99997502565383911,
        0.99995142221450806,
        0.9999845027923584
      ],
      "min": [
        -0.99997502565383911,
        -0.99998092651367188,
        -0.99996167421340942
      ],
      "type": "VEC3"
    },
    {
      "bufferView": 1,
      "componentType": 5126,
      "count": 13993,
      "max": [
        0.99412000179290771,
        0.99286925792694092
      ],
      "min": [
        0.0028047980740666389,
        0.0039175152778625488
      ],
      "type": "VEC2"
    },
    {
      "bufferView": 1,
      "byteOffset": 111944,
      "componentType": 5126,
      "count": 13993,
      "max": [
        0.99412000179290771,
        0.99286925792694092
      ],
      "min": [
        0.0028047980740666389,
        0.0039175152778625488
      ],
      "type": "VEC2"
    },
    {
      "bufferView": 1,
      "byteOffset": 223888,
      "componentType": 5126,
      "count": 13993,
      "max": [
        0.99412000179290771,
        0.99286925792694092
      ],
      "min": [
        0.0028047980740666389,
        0.0039175152778625488
      ],
      "type": "VEC2"
    },
    {
      "bufferView": 0,
      "componentType": 5125,
      "count": 64335,
      "max": [
        13992
      ],
      "min": [
        0
      ],
      "type": "SCALAR"
    }
  ],
  "asset": {
    "extras": {
      "author": "kiritouJert (https://sketchfab.com/Thekiritou.Fr)",
      "license": "CC-BY-4.0 (http://creativecommons.org/licenses/by/4.0/)",
      "source": "https://sketchfab.com/3d-models/per-noel-b9925fdb2d814c09889d8fbbf55a6bc8",
      "title": "pér noel"
    },
    "generator": "Sketchfab-9.37.0",
    "version": "2.0"
  },
  "bufferViews": [
    {
      "buffer": 0,
      "byteLength": 257340,
      "byteOffset": 0,
      "name": "floatBufferViews",
      "target": 34963
    },
    {
      "buffer": 0,
      "byteLength": 335832,
      "byteOffset": 257340,
      "byteStride": 8,
      "name": "floatBufferViews",
      "target": 34962
    },
    {
      "buffer": 0,
      "byteLength": 335832,
      "byteOffset": 593172,
      "byteStride": 12,
      "name": "floatBufferViews",
      "target": 34962
    }
  ],
  "buffers": [
    {
      "byteLength": 929004,
      "uri": "scene.bin"
    }
  ],
  "extensionsRequired": [
    "KHR_materials_pbrSpecularGlossiness"
  ],
  "extensionsUsed": [
    "KHR_materials_pbrSpecularGlossiness"
  ],
  "images": [
    {
      "uri": "textures/material_diffuse.png"
    },
    {
      "uri": "textures/material_specularGlossiness.png"
    }
  ],
  "materials": [
    {
      "doubleSided": true,
      "emissiveFactor": [
        0,
        0,
        0
      ],
      "extensions": {
        "KHR_materials_pbrSpecularGlossiness": {
          "diffuseFactor": [
            1,
            1,
            1,
            1
          ],
          "diffuseTexture": {
            "index": 0,
            "texCoord": 0
          },
          "glossinessFactor": 1,
          "specularFactor": [
            1,
            1,
            1
          ],
          "specularGlossinessTexture": {
            "index": 1,
            "texCoord": 1
          }
        }
      },
      "name": "material"
    }
  ],
  "meshes": [
    {
      "primitives": [
        {
          "attributes": {
            "NORMAL": 1,
            "POSITION": 0,
            "TEXCOORD_0": 2,
            "TEXCOORD_1": 3,
            "TEXCOORD_2": 4
          },
          "indices": 5,
          "material": 0,
          "mode": 4
        }
      ]
    }
  ],
  "nodes": [
    {
      "children": [
        1
      ],
      "name": "RootNode (gltf orientation matrix)",
      "rotation": [
        -0.70710678118654746,
        -0,
        -0,
        0.70710678118654757
      ]
    },
    {
      "children": [
        2
      ],
      "name": "RootNode (model correction matrix)"
    },
    {
      "children": [
        3
      ],
      "name": "root"
    },
    {
      "children": [
        4
      ],
      "matrix": [
        1,
        0,
        0,
        0,
        0,
        2.2204460492503131e-16,
        1,
        0,
        0,
        -1,
        2.2204460492503131e-16,
        0,
        0,
        0,
        0,
        1
      ],
      "name": "GLTF_SceneRootNode"
    },
    {
      "children": [
        5
      ],
      "name": "root_0"
    },
    {
      "children": [
        6
      ],
      "matrix": [
        0.05298856645822525,
        0,
        0,
        0,
        0,
        0.05298856645822525,
        0,
        0,
        0,
        0,
        0.05298856645822525,
        0,
        -0.036937486380338669,
        -0.0015628357650712132,
        0.36441758275032043,
        1
      ],
      "name": "node_id35_1"
    },
    {
      "mesh": 0,
      "name": ""
    }
  ],
  "samplers": [
    {
      "magFilter": 9729,
      "minFilter": 9987,
      "wrapS": 10497,
      "wrapT": 10497
    }
  ],
  "scene": 0,
  "scenes": [
    {
      "name": "OSG_Scene",
      "nodes": [
        0
      ]
    }
  ],
  "textures": [
    {
      "sampler": 0,
      "source": 0
    },
    {
      "sampler": 0,
      "source": 1
    }
  ]
}

